<svg xmlns="http://www.w3.org/2000/svg" xml:space="preserve" style="enable-background:new 0 0 512 512" viewBox="0 0 512 512">
	<switch>
		<g>
			<path d="M1 257C1 173 1 89 .9 5 .9 1.6 1.6.9 5 .9 173 1 341 1 509 .9c3.4 0 4.1.7 4.1 4.1-.1 168-.1 336 0 504 0 3.4-.7 4.1-4.1 4.1-168-.1-336-.1-504 0-3.4 0-4.1-.7-4.1-4.1C1 425 1 341 1 257z" style="fill:none" />
			<path d="M8 280.7c46.4-47.2 92.4-94 138.4-140.9 2.8-2.9 4.3-1.5 6.6.2 69 51.2 138.1 102.3 207.1 153.6 3.7 2.7 6.4 3.1 10.5 1.2 42.8-19.9 85.7-39.7 128.6-59.4 1.8-.8 3.6-1.6 5.6-2.4.3 2.2-1.2 2.9-2.1 3.9-44.8 45.7-89.7 91.3-134.5 137-2.7 2.7-4.2 2.3-6.9.3-69.3-51.5-138.5-102.7-207.6-154-3.6-2.7-6.2-2.8-10.1-1-43.3 20.1-86.6 40-130 60-1.6.7-3.1 2.1-5.6 1.5z" style="fill:#0074d8" />
		</g>
	</switch>
</svg>