<svg xmlns="http://www.w3.org/2000/svg" width="300" height="88"><defs><linearGradient id="a" x1="50%" x2="50%" y1="3.926%" y2="100%"><stop offset="0%" stop-color="#37E1EC"/><stop offset="100%" stop-color="#27CD7F"/></linearGradient></defs><path fill="url(#a)" fill-rule="evenodd" d="M35.92 65.237c2.461-1.567 4.326-2.35 5.594-2.35 2.238 0 4.961 1.977 8.169 5.93 1.716 2.164 2.574 4.104 2.574 5.82 0 2.834-2.052 5.482-6.155 7.944-4.252 2.984-9.474 4.476-15.666 4.476-3.357 0-6.77-.653-10.238-1.958-3.47-1.306-6.733-3.152-9.791-5.54-3.059-2.386-5.558-5.575-7.498-9.566C.97 66 0 61.582 0 56.733c0-4.775.97-9.12 2.91-13.037 1.939-3.916 4.42-7.068 7.44-9.455 3.022-2.387 6.267-4.215 9.736-5.483 3.469-1.268 6.844-1.902 10.127-1.902 2.834 0 5.595.391 8.28 1.175 2.686.783 4.663 1.548 5.93 2.294l1.791 1.118a85.184 85.184 0 0 1 3.077 2.127c.709.522 1.38 1.25 2.014 2.182.635.932.952 1.958.952 3.077 0 1.79-.784 3.879-2.35 6.266-2.686 4.103-5.26 6.155-7.721 6.155-1.418 0-3.432-.821-6.043-2.462-1.343-1.268-3.32-1.903-5.93-1.903-2.388 0-4.663.896-6.826 2.686-2.164 1.79-3.245 4.252-3.245 7.385 0 3.208 1.044 5.689 3.133 7.442 2.089 1.753 4.327 2.63 6.714 2.63 1.193 0 2.275-.15 3.245-.448.97-.299 1.641-.597 2.014-.896l.671-.447ZM91.532 27.75c7.46 0 13.67 2.835 18.631 8.504 4.961 5.67 7.441 12.607 7.441 20.813v19.694c0 1.716-.056 3.003-.167 3.86-.112.859-.448 1.829-1.008 2.91-.56 1.082-1.547 1.847-2.965 2.294-1.417.448-3.32.672-5.707.672-2.312 0-4.159-.224-5.539-.672-1.38-.447-2.368-1.212-2.965-2.294-.597-1.081-.951-2.07-1.063-2.965-.112-.895-.168-2.238-.168-4.028V56.956c0-3.058-.858-5.445-2.574-7.161-1.715-1.716-3.916-2.574-6.602-2.574-2.61 0-4.923.802-6.937 2.406-2.014 1.604-3.17 3.413-3.47 5.427v21.708c0 1.716-.055 3.003-.167 3.86-.112.859-.448 1.829-1.007 2.91-.56 1.082-1.548 1.847-2.965 2.294-1.418.448-3.32.672-5.707.672-2.313 0-4.178-.224-5.595-.672-1.418-.447-2.406-1.23-2.965-2.35-.56-1.119-.896-2.088-1.008-2.909-.111-.82-.167-2.126-.167-3.916V9.735c0-1.716.056-3.002.167-3.86.112-.858.448-1.828 1.008-2.91.56-1.081 1.547-1.846 2.965-2.294C64.416.224 66.319 0 68.706 0c2.312 0 4.177.224 5.595.671 1.417.448 2.405 1.231 2.965 2.35.56 1.12.895 2.108 1.007 2.966.112.857.168 2.144.168 3.86v24.73c3.73-4.55 8.094-6.826 13.092-6.826Zm64.006-1.567c8.206 0 15.405 2.89 21.596 8.672 6.192 5.782 9.288 13.148 9.288 22.1 0 6.192-1.604 11.694-4.812 16.505-3.207 4.812-7.105 8.355-11.693 10.63-4.588 2.276-9.306 3.414-14.155 3.414-4.998 0-9.81-1.213-14.435-3.637-4.625-2.425-8.523-6.005-11.694-10.742-3.17-4.737-4.755-10.09-4.755-16.058 0-8.952 3.133-16.337 9.4-22.156 6.266-5.818 13.352-8.728 21.26-8.728Zm0 41.627c2.462 0 4.924-.933 7.385-2.798 2.462-1.865 3.693-4.625 3.693-8.28 0-3.656-1.156-6.379-3.469-8.169-2.313-1.79-4.886-2.686-7.72-2.686-2.537 0-4.962.933-7.274 2.798-2.313 1.865-3.47 4.588-3.47 8.168 0 3.656 1.194 6.397 3.582 8.225 2.387 1.828 4.811 2.742 7.273 2.742Zm70.72-20.478-7.274-.448v15.442c0 2.015.317 3.47.952 4.365.634.895 1.771 1.342 3.412 1.342 1.865 0 3.264.056 4.197.168.932.112 1.902.448 2.91 1.007 1.006.56 1.696 1.436 2.07 2.63.372 1.193.559 2.835.559 4.923 0 2.313-.243 4.178-.728 5.595-.485 1.418-1.286 2.406-2.405 2.966-1.12.56-2.108.895-2.966 1.007-.858.112-2.107.168-3.748.168-7.759 0-13.652-1.753-17.68-5.26-4.029-3.506-6.043-9.436-6.043-17.792v-16.56c-1.417.223-2.76.335-4.028.335-2.014 0-3.562-.634-4.644-1.902-1.082-1.268-1.623-3.917-1.623-7.945 0-2.089.187-3.823.56-5.203.373-1.38.914-2.369 1.622-2.965.71-.597 1.4-.989 2.07-1.175.672-.187 1.455-.28 2.35-.28l3.693.447V16.673c0-1.716.056-2.984.168-3.805.112-.82.448-1.734 1.007-2.741.56-1.007 1.548-1.716 2.965-2.126 1.418-.41 3.32-.616 5.707-.616 1.865 0 3.413.187 4.644.56 1.23.373 2.182.802 2.853 1.287.672.485 1.175 1.23 1.511 2.238.336 1.007.522 1.883.56 2.63.037.745.055 1.79.055 3.132v10.966c3.283-.298 5.745-.447 7.386-.447 1.716 0 3.002.056 3.86.168.858.112 1.828.447 2.91 1.007 1.081.56 1.846 1.548 2.294 2.965.447 1.417.67 3.32.67 5.707 0 2.312-.223 4.177-.67 5.595-.448 1.417-1.231 2.406-2.35 2.965-1.12.56-2.108.895-2.966 1.007-.858.112-2.144.168-3.86.168Zm64.006-19.806c2.312 0 4.177.224 5.595.671 1.417.448 2.406 1.231 2.965 2.35.56 1.12.895 2.108 1.007 2.966.112.858.168 2.144.168 3.86V76.54c0 1.715-.056 3.002-.168 3.86-.112.858-.447 1.828-1.007 2.91-.56 1.081-1.548 1.846-2.965 2.293-1.418.448-3.32.672-5.707.672-3.357 0-5.726-.504-7.106-1.51-1.38-1.008-2.182-2.481-2.405-4.42-2.76 3.953-7.237 5.93-13.428 5.93-6.714 0-12.831-2.947-18.352-8.84-5.52-5.894-8.28-12.794-8.28-20.701 0-7.684 2.779-14.454 8.336-20.31 5.558-5.856 11.656-8.784 18.296-8.784 2.536 0 4.849.448 6.937 1.343 2.09.895 3.544 1.734 4.364 2.517.821.784 1.492 1.548 2.015 2.294.223-2.088 1.025-3.655 2.405-4.7 1.38-1.044 3.824-1.566 7.33-1.566Zm-20.03 39.165c2.686 0 4.942-1.008 6.77-3.022 1.828-2.014 2.741-4.252 2.741-6.714 0-2.387-.876-4.625-2.63-6.714-1.752-2.088-4.12-3.133-7.105-3.133-2.91 0-5.278 1.045-7.105 3.133-1.828 2.09-2.742 4.364-2.742 6.826 0 2.462.97 4.681 2.91 6.658 1.94 1.977 4.326 2.966 7.161 2.966Z"/><script/></svg>