<svg xmlns="http://www.w3.org/2000/svg" xml:space="preserve" viewBox="0 0 800 800">
  <path fill="#fff" d="M40 0h720c22.1 0 40 17.9 40 40v720c0 22.1-17.9 40-40 40H40c-22.1 0-40-17.9-40-40V40C0 17.9 17.9 0 40 0z"/>
  <path fill="#111322" d="M696 66.7H104c-20.6 0-37.3 16.8-37.3 37.3v592c0 20.6 16.8 37.3 37.3 37.3h592c20.6 0 37.3-16.8 37.3-37.3V104c0-20.6-16.7-37.3-37.3-37.3zM496.1 712.5H305c13.1-61.8 11.8-124.3 5.1-186.2 22.5-3 45-6.4 67.2-9.8 40-6.2 80.5-12.5 121.1-16.1 9.3 70.9 13.2 142.5-2.3 212.1zM374.2 495.9c-22 3.4-44.2 6.8-66.4 9.8-3.5-27.9-7.7-55.6-12-83.1-5.4-34.7-10.8-69.7-14.5-104.9 32.3-3.7 64.4-8.6 96.1-13.6 30.7-4.8 61.7-9.5 92.8-13.2 3.5 45.3 10.4 90.4 17.3 134.8 2.8 17.9 5.5 35.9 8 53.9-40.7 3.9-81.3 10.1-121.3 16.3zM87.5 313.6c33.5 7.1 67.2 10.1 100.9 10.1 24.1 0 48.1-1.7 72.1-4 3.8 35.6 9.3 71.1 14.7 106.1 4.2 27.3 8.4 54.8 11.9 82.5-66.8 8.1-134 10.8-199.6-3.8V313.6zM299.8 87.5h190.3c-20.1 60.9-24.4 122-21.3 182.7-31.8 3.7-63.4 8.6-94.7 13.4-31.4 4.9-63.1 9.7-94.9 13.3-5.9-70-3.6-140.3 20.6-209.4zm208.3 335.1c-6.9-44.2-13.8-88.9-17.1-133.8 74-7.2 148.5-6.1 221.5 19.4v190.3c-65.4-21.6-131-24.9-196.1-20.5-2.7-18.5-5.4-37-8.3-55.4zM712.5 104v182.3c-74.3-24.5-149-25.5-222.8-18.3-3-60.4 1.6-120.9 22.5-180.5H696c9.1 0 16.5 7.4 16.5 16.5zM104 87.5h173.9c-23.3 70.5-25.3 141.4-19.3 211.6-57.4 5.5-114.8 5.6-171-6.9V104c-.1-9.1 7.3-16.5 16.4-16.5zM87.5 696V525.9C121 533 154.7 536 188.4 536c33.8 0 67.5-2.9 101.1-6.9 6.6 61.5 7.8 123.2-5.7 183.4H104c-9.1 0-16.5-7.4-16.5-16.5zM696 712.5H517.3c15-71 11.1-142.8 1.9-213.7 64.6-4.3 129.5-.6 193.2 21.8V696c.1 9.1-7.3 16.5-16.4 16.5z"/>
  <path d="M245.9 153.1c0 11.7-3.6 21.5-10.6 29.4-7.1 7.9-16.7 13.9-28.9 18l33.6 61.4h-41.9l-27.4-53.3h-21.1l-12.3 53.3H99.8l33.5-145.4h56.8c17.8 0 31.5 3 41.2 9 9.8 6 14.6 15.2 14.6 27.6zm-40.4 6.3c0-5.8-1.9-10-5.6-12.4-3.7-2.4-9.3-3.7-16.6-3.7h-18.6l-9 39.1h18.4c10 0 17.7-2 23.1-6.1 5.5-4 8.3-9.7 8.3-16.9zM461.4 465h-37.9l-3.3-29.7h-53.3l-17 29.7h-39.3l87.2-145.4h43.4L461.4 465zm-43.9-55.8-5.9-51.9-29.8 51.9h35.7zm192.2 275.3c-20.6 0-36.8-4.9-48.5-14.6-11.7-9.8-17.5-23.6-17.5-41.6 0-28 9-50.8 27.1-68.5 18-17.7 40.9-26.5 68.7-26.5 10.5 0 20.2.9 29.2 2.7 9 1.8 18.2 5.2 27.9 10.2l-8.3 34.1H684c-7.8-7.4-15.2-12.6-22.2-15.5-7-2.9-14.6-4.3-23-4.3-8.5 0-16.2 1.7-23.1 5.2-6.9 3.5-12.8 8.2-17.7 14.1-4.6 5.6-8.2 12.2-10.8 19.9-2.6 7.7-3.9 15.7-3.9 24.1 0 11.6 3.2 20.2 9.6 25.7 6.4 5.5 16.8 8.2 31.2 8.2 1.4 0 3 0 4.7-.1 1.7-.1 3.3-.2 4.7-.3l6.6-28.4h-29l6.3-27.4h67.1l-16.6 71.8c-8.7 3-17.9 5.6-27.7 7.9-9.9 2.1-20 3.3-30.5 3.3z"/>
</svg>
