<svg xmlns="http://www.w3.org/2000/svg" xml:space="preserve" id="Layer_1" x="0" y="0" style="enable-background:new 476-176.8 600 400" version="1.1" viewBox="476 -176.8 600 400"><style>.st0{fill:#eaf7fe}.st2{fill:#a1d4e9}.st3{fill:#85c1ce}.st4{fill:#4f4e51}.st5{fill:#5c5b5d}.st6{fill:#cdeaf5}.st7{fill:#5d5c5e}.st8{fill:none;stroke:#738083;stroke-width:2;stroke-miterlimit:10}.st10{fill:#414141}.st11{fill:none;stroke:#414141;stroke-width:2;stroke-linecap:round;stroke-miterlimit:10}.st13{fill:#e9f7fe}.st14{fill:#fff}.st17,.st18{fill:#ededed}.st18{opacity:.7}.st19{opacity:.3;fill:#4f4e51;enable-background:new}</style><path d="M833.9-37.5c6.7-9.6 11.7-15.5 11.7-15.5-8.1-9.2-24.7-7.5-24.7-7.5l9.8-11.6-16.4-6.2c2.5-7.7 11.1-14.6 11.1-14.6-31.4-11.5-53.4 2.8-53.4 2.8 1.9-7.2 11.4-18.5 11.4-18.5-30.6 2-53.9 26.4-53.9 26.4-.4-4.2 2.9-15.8 2.9-15.8S716.1-86.4 707-68.5c-3.2 6.1-16.3 50.7-17.9 60.7 0 0-3.7-1.5-7.9-1 0 0 5.9 8.1 6.4 11.9.7 3.7-6 27.2-8.5 31.2s-5.6 6.2-7.1 6.9c0 0 2.3 4.4 4.8 4.8 0 0-.7 13.9-2.3 16.8s-6.4 7.5-8.7 8.9c0 0 5 5.9 8.4 6 0 0-3.3 6.4-4.6 8.1s-4.4-1.5-4.4-1.5.7 5.3 1.2 7.2c.7 2.3-.4 5.3-.9 7-.7 1.7-4.4 12.7-4.8 17.9-.4 5.2.8 9.2.8 9.2s1.5-2.9 3.2-3.5c0 0 0 10.8 2.5 15.6 2.5 4.8 6.2 9.9 7.7 11.1 0 0-.8-3.7.2-5.4 0 0 2.6 9.2 15.1 11.1 27.2 4 46.8 8.9 78.4-9.4 29.4-17 25.4-79.9 34.9-119.8 4.5-18.6 13.8-36.8 22.6-50.9 5.9-7.3 14.6-12.1 14.6-12.1-2.9-.6-5.6-.1-6.8.2z" class="st0"/><ellipse cx="777" cy="196.3" rx="206" ry="24.1" style="fill:#e6e7e8"/><path d="M639.8 192.4c.4-1.3.7-2.6.8-3.7 0-3.9.7-8.9 4-13.7-1.1.3-2.4.7-2.4.7 4-4.9 8.1-7.6 10.8-8.9-.7-.7-2.6-1-2.6-1 2.3-.9 9.4-2 15.2-2.8l-2.4-1.4 10.4.2c4.8-1.3 10.6-2.3 17.5-2.9-.6-1.1-1.1-5.2-1.1-5.2 6.5-.3 16.1 2 19.1 2.5 1 0 2 3.9 3.2 4 0 0 16.3-9.2 16.5 7.1.2 12.3-.6 24.7-.9 30-4.3-.7-8.5-.9-12.9-1-5.9-.1-11.8-.3-17.6-.3-1.9 0-3.6 0-5.5.1-8.3-.1-25.1.7-36.4 1.4v-2.2l-1.1.2h-7.1l-.2-2v-1c-2.5-.3-4.9-.2-7.3-.1z" class="st2"/><path d="M646.8 192.2c-1 0-2.1 0-3.2.1.3-20.4 20-25.1 20-25.1-17.1 6.6-16.9 22.6-16.8 25zM651.5 187.6c1.2-3.4 4.1-6.5 5-7.5 6.5-9.2 17.7-10 17.7-10-20.3 4.7-19 25.2-19 25.2l-1.1.1H652c.1-3.3.5-5.6 1.1-7.8h-1.6z" class="st3"/><path d="M705.7-45.8c-18.9-6.7-28.4-24.8-28.4-24.8s-5.2 12.9 1 27.3c4.5 10.1 15 16.8 21 19.9 1.7-7.6 3.6-15.2 6.4-22.4z" class="st4"/><path d="M705.7-45.8c-18.9-6.7-28.4-24.8-28.4-24.8s1.4 24.6 24.9 35.5c1-3.7 2.1-7.2 3.5-10.7z" class="st5"/><path d="M677.3 59.1s-2.6-3.1-6.5-7.1c-4.1-5.7-4.7-12.5-4.7-12.5-1.3 1.6-1.6 5.4-1.7 6.4-4.8-4.3-10.2-8.4-14.8-9.7 2.3 1.1 3.9 2 3.9 2s-3.6.6-6.7.6l2.8 50.8 17.6 8.1c.1 0 16.6-25.5 10.1-38.6z" class="st2"/><path d="M649.7 36.2c-3-1.5-7.1-3.3-10-4 0 0 2.9 2.7 2.7 5.2-.1 1.1 2 1.4 4.6 1.4l-.2-3.1c.9 0 1.9.2 2.9.5z" class="st2"/><path d="M649.7 36.2c-1-.3-2-.5-3-.5l.2 3.1c3.2 0 6.7-.6 6.7-.6s-1.7-.9-3.9-2z" class="st2"/><path d="M722.9-61c11-18.5 46.5-34.6 53-37.4 3.3-5.4 7.5-10.2 7.5-10.2-30.6 2-53.9 26.4-53.9 26.4-.4-4.2 2.9-15.8 2.9-15.8S716.1-86.4 707-68.5c-3.2 6.1-16.3 50.7-17.9 60.7 0 0-3.7-1.5-7.9-1 0 0 5.9 8.1 6.4 11.9.7 3.7-6 27.2-8.5 31.2s-5.6 6.2-7.1 6.9c0 0 2.3 4.4 4.8 4.8 0 0-.7 13.9-2.3 16.8s-6.4 7.5-8.7 8.9c0 0 4.8 6.4 8.1 6.7 0 0-3.2 5.9-4.4 7.5-1.2 1.7-4.4-1.5-4.4-1.5s.7 5.3 1.2 7.2c.7 2.3-.4 5.3-.9 7-.7 1.7-4.4 12.7-4.8 17.9-.4 5.2.8 9.2.8 9.2s1.5-2.9 3.2-3.5c0 0 0 10.8 2.5 15.6 2.5 4.8 6.2 9.9 7.7 11.1 0 0-.8-1.9.2-3.5 0 0 3.7 7.6 15.8 11.4 10.4 3.3 18.9 4.6 30.1 1.2 8-2.6 12.7-10.5 12.7-10.5-51.8 16.3-66.3-18.9-60.5-41.3 2.8-10.8 15.3-29.1 15.3-29.1-5.9 1.7-9.2-3.7-9.2-3.7s2.8-.6 7.5-5c4.7-4.5 3.6-28.6 3.6-28.6-2.1.7-4.3.8-4.8.8h-.2.2c.5-.1 1.9-1 4.6-8-.7-.4-1.3-.7-2-1.2-.2-.1-.3-.3-.2-.6 1.7-5.2 1-10.7 2.2-16 .3-1.4.7-3.5 2.1-4.4 1.4-.8 3-.5 4.5-.3 1-3.9 2-8.4 3.3-13.5C710.5-48.6 720.9-74 720.9-74c-1.8 4.7 2 13 2 13z" class="st6"/><path d="M670.2 81c1.3 1.7.9 4.1-.7 5.4L638.4 110c-1.7 1.3-4.1.9-5.4-.7l-46.3-61.1c-1.3-1.7-.9-4.1.7-5.4l31.1-23.6c1.7-1.3 4.1-.9 5.4.7L670.2 81z" class="st7"/><path d="M670.2 81c1.3 1.7.9 4.1-.7 5.4L638.4 110c-1.7 1.3-4.1.9-5.4-.7l-46.3-61.1c-1.3-1.7-.9-4.1.7-5.4l31.1-23.6c1.7-1.3 4.1-.9 5.4.7L670.2 81z" class="st8"/><path d="M609.4 36.9h39.1v56.7h-39.1z" style="fill:#747f84" transform="rotate(142.873 628.922 65.189)"/><path d="M652.5 91.4c1 1.3.7 3.2-.6 4.2-1.3 1-3.2.7-4.2-.6-1-1.3-.7-3.2.6-4.2 1.3-.9 3.2-.7 4.2.6z" class="st10"/><path d="m603.3 41.1 9.4-7.1" class="st11"/><g style="opacity:.5"><path d="m646.341 59.38-27.666 20.944-15.271-20.172 27.666-20.944zM632.44 82.227l-7.814 5.916-4.225-5.582 7.814-5.915zM649.687 63.756l-17.7 13.4-1.57-2.073 17.7-13.4zM652.312 67.218l-17.7 13.4-1.57-2.073 17.7-13.4zM638.252 89.858l-7.813 5.915-4.225-5.581 7.813-5.915zM655.5 71.386l-17.701 13.4-1.57-2.073 17.7-13.4zM658.124 74.849l-17.7 13.4-1.57-2.073 17.7-13.4zM629.317 37.053l-27.666 20.945-2.113-2.79 27.666-20.946z" class="st13"/></g><path d="M653.2 58.2c-16.3 12.3-34.1 1.9-34.1 1.9 2.3-5 16.8-24.3 27.7-24.3-.1-.1 16 6.3 6.4 22.4zM643.2 72.3c-21-6.2-39.3-1-39.3-1-8.6 2-5.9 11.9-2 19.3h-.1s3.5 9.2 3.5 11.6l2.4-2.7c4.8 5.5 12.5 9.8 23.8 3 13.4-8.2 11.7-30.2 11.7-30.2z" class="st2"/><ellipse cx="748.8" cy="30.4" class="st6" rx="9" ry="11.4"/><ellipse cx="704" cy="23.8" class="st6" rx="9" ry="11.4"/><ellipse cx="748" cy="27.4" class="st14" rx="8.9" ry="11.2"/><ellipse cx="703.9" cy="20.7" class="st14" rx="8.9" ry="11.2"/><path d="M708.7 15.7c.1.3.1.6.1.8 0 1.6-1 2.9-2.3 2.9-1.1 0-2-1-2.2-2.3-.7.9-1.2 2.2-1.2 3.6 0 3 2 5.3 4.3 5.3s4.3-2.4 4.3-5.3c0-2.3-1.3-4.3-3-5z" class="st4"/><path d="M783.1 22.6c-3.4-2-7.5-3.3-7.5-3.3-3.9-1.2-10.7-2.9-19.1-3.7-11-1.1-20.4-.9-26.1-.9H725.2c-2.2 0-3.2 0-4.4-.4-.7-.2-1.4-.5-2.5-.9-.4-.2-.7-.3-1.1-.5-2-.8-4.6-1.9-7.7-2.8-3.4-1-6.9-1.8-10.5-2.2-8.3-1-14.1-.8-17-.7-.7 0-1.2.3-1.7.7-.7.7-.9 1.9-1.1 3l-.6 3.7c-.2 1.6.9 2.4 1.8 3.2.6.6.8 1.1.7 2.2 0 .2 0 5.4.5 8.5.4 2.7 2 4.8 8 6.7 1.1.4 2.4.7 3.9 1 10.2 2.2 14 1.7 17.5 0 3.3-1.6 5.7-8.5 6.8-11.7.2-.5.4-1.1.5-1.3.2-.3.3-.6.4-.8.3-.7.3-.7 1.1-.7 1 .1 2 .2 2.6.4 1 .3 1.2.7 1.2.7.2.6.4 2 .5 3.5.1 1 .2 2 .4 3.1l.1.8c.4 3 .9 7.4 3 9.5 1.4 1.4 5.4 3.3 9.8 4.6 3 .9 6 1.6 8.7 1.8 7.2.7 14.6.7 17.8.1 3.3-.7 4.3-2.5 5.6-5.7.2-.5.4-.8.5-1.2l.1-.3s2.6-8.2 4.3-14.6c3.7 1 7.3 2.5 7.3 2.5l1.4-4.3zm-68.8-2.7c-.3 2.6-1.1 5.6-2.7 9.3-1.8 4-2.2 4.2-3.8 4.6-2 .6-7.7.2-13.7-1.3-5.8-1.4-8.5-3.5-9-4.8-.5-1.1-.2-13.1.3-15.4.1-.5.3-.6.3-.7.7-.7 3.5-.6 6.1-.4 5 .4 12.1 2.4 14.7 3.2l.5.1c.2.1.5.1.7.2 4.4 1.3 6.8 3.2 6.6 5.2zm55.5 6.1c-.5 2.2-3.4 12.5-4.6 14.7-.8 1.6-2.8 1.8-8.4 2h-.4c-5.5.2-15-1.3-20-2.9-.2-.1-.5-.1-.7-.2-4.6-1.6-5.1-2.2-6.3-5s-1-10.6-1-12.1v-.1c0-1.6.1-2.4 2.2-3 2.9-.8 15.3-.7 20.2-.2 3.9.4 12.2 2.2 15.9 3.3.6.2 1 .3 1.3.5.6.3 2.1 1.3 1.8 3z" class="st5"/><path d="M750.3 21.5c.1.3.1.6.1.8 0 1.6-1 2.9-2.3 2.9-1.1 0-2-1-2.2-2.3-.7.9-1.2 2.2-1.2 3.6 0 3 2 5.3 4.3 5.3s4.3-2.4 4.3-5.3c0-2.3-1.2-4.2-3-5z" class="st4"/><path d="M743-13.7s15.8-6.7 22.8.6c0 0 0-7.2-9.8-6.9-6.8 0-9.7 2.7-13 6.3zM746.3-21.8s5.1-5 14.1-3.7c0 0-3.5-3.1-8-1.9-2.8.6-4.7 2.4-6.1 5.6zM698.7-8.9s8.1 2.9 11.6 8.5c0 0 .9-4.7-3.6-7.2-3.5-2.1-5.1-1.7-8-1.3zM713.2-9.1s-2.3-3.6-6-3.8c0 0 3.1-1.3 4.6 0 .6.5 1.7 1.7 1.4 3.8z" class="st2"/><path d="M716.9 50.8c-.4-.2 10.1 2.3 20.6 3.5 0 0 .8-2 1.9-2.9 0 0-.7 3.3.1 4.2 0 0-5.6 1.2-10.8.4 0 0 5.9-.1 8-.7-.1-.1-10.6-1.1-19.8-4.5zM803.3-29.2c.7.3 3.1 1.1 3.1 1.1 21.3 8.6 42.7-3 42.7-3s-2.9 13.7-16.1 22C819.8-.6 800-5 800-5c-1.5 2.5-2.1 8.9-2.1 8.9s-3.5-8-1.1-20.2c1.7-8.3 6.1-13.1 6.5-12.9" class="st5"/><path d="M803.3-29.2c.7.3 3.1 1.1 3.1 1.1 21.3 8.6 42.7-3 42.7-3s-19.3 25.4-51.7 12.4c.1 0 .8-5.6 5.9-10.5" style="fill:#747f83"/><path d="M675 77.7s8.2 1.5 13.3-1.2c0 0 1.2 7.1 7.7 12.3 0 0 6.3-10.2 12.4-11.6 0 0 .4 5.1.2 9.3 0 0 11.3.7 21.1-7.4 0 0-2.2 11.1-25.1 11.9 0 0 .6-5.5.4-6.6 0 0-4.8 6.2-8.2 13.2 0 0-11.7-7.9-13.7-15.6 0 0-1 1.2-9.9-.2l1.8-4.1z" class="st6"/><path d="M633.8 70.3s-11.1 8.6-18.8 11.1c0 0 18.6-4.3 24.5-7.1 0 0-5.1 12.6-20.3 17.6 0 0 14.4-1.4 20.2-6.8 0 0-6.1 19.1-20.5 20.8 0 0 8.5 1.4 16-5.9 7.5-7.3 9-22 8.3-27.7 0 0-5.8-1.7-9.4-2zM653.8 58.1s3.7-2.2 5.6-4.2c0 0 .1 4.2-3.7 6.4l-1.9-2.2z" class="st3"/><path d="M852 100.4c2.1-1.8 4.3-.9 3.5-9.1-.6-6.4-5.6-14.1-5.6-14.1M802.9 69.8l-4 1.7 4.7 1.9zM854.7 69.8s10.4-2 13.5-8.5" class="st0"/><path d="M678.3 160.7s13.6 7.6 32.9 5.9l-.2-6.8s-11.1.2-21.3-3.5l-.1 2.4-3.3-2 .2 2.6-8.2 1.4z" class="st3"/><path d="m754.9 174.7-2.5-.1c-9.1-.5-15.2-1.7-24.3-1.3-5.9.3-12.2.6-18.3.8 3.4-2.5 4.8-4.6 8-8.1l1.3 2.2c1-1.5 3.3-5.9 4.3-7.9 5.5-6.8 9.5-12.9 9.5-12.9l-14.1 5c-.7 1.9-1.9 3.7-3.4 5.5-.1.3-.2.6-.3.8-1.2-1.7-2.9-3.1-3.3-.7-.1.4-.1.7-.2 1.1-3 4.5-14.7 11.8-14.7 11.8-.7.5-1.2.7-1.2.7l2.5.7-.5 2.5h-.2c-.2 1.2-.4 2.4-.7 3.5v1l-.3 8.6c-.7 1-2.1 2.9-3.5 3.3 0 0 1.4 1.2 2.7.4l-.2.9s-.9 7.1 4.8 7.2l16.2.6c.9 0 1.5.1 1.5.1l17.4.7.2-2.4 9.9.7 1.7-3.4 15 .5c2.3-15.5-1.8-21.1-7.3-21.8z" class="st6"/><path d="M764.5 190.9c0-1.5-.2-3.2-.4-4.8l1.2.6c-.5-3.2-2.6-6.2-2.9-6.6-1.5-3.3-3.9-5.7-7.9-5.9l1.1-1.5c-3.8-.8-5.8-1.6-12.2-.5 3.5-1.1 7-3.5 10-6.5l1.3 1.2 1.9-4.2-.7.4c2.1-2.4 4.2-4.9 5.9-7.3l2 2.6c1.7-2.9 4.8-13.6 4.8-13.6l-23.4 7.7c-.6.8-1.3 1.7-2.2 2.6l-9.4-9s-5.4 8.1-11.9 15.7c-.7.8-1.7 4.5-2.5 5.9-.6-1-.7-2.3-1.3-1.8-3.3 3.5-6.9 6.6-9.9 8.1l6.3.3c-2 1.1-3.3 1.9-3.3 1.9s.8-.1 10.5-.9c9.7-.9 15.5 3.2 15.5 3.2v-.3c.7.4 3.3 2 5.1 5.9.3.9 1.6 6.6.5 8.5l1.7-.6c.2 2.1.2 4.6 0 7.2l7.1.2s.7-8.5-1-15.2l2 .1c-.9-3.3-3.7-5.7-5.5-6.9-.5-.4-1-.7-1.6-.9 0 0 14.1-1.1 13.4 19.7l2.4.1 6.2.5c-.2-.4-.3-.7-.4-1-1.5-1.4-2.2-3.9-2.4-4.9zm-22.5-6.7c.5 1 .9 2.1 1.2 3.4l-1.2-3.4z" class="st0"/><path d="m732.3 184 1.2-1c-2.1-1.7-5.7-2-7.5-1.9-.6-.1-1-.1-1.7-.2 0 0 5.7 5.5 4.7 20.1l6.3.2c.2 0 2.7-11.6-3-17.2z" class="st0"/><path d="M959.3 194.4c0 4.8-3.9 8.8-8.8 8.8H766.9c-4.8 0-8.8-3.9-8.8-8.8V64.9c0-4.8 3.9-8.8 8.8-8.8h183.7c4.8 0 8.8 3.9 8.8 8.8l-.1 129.5z" class="st7"/><path d="M959.3 194.4c0 4.8-3.9 8.8-8.8 8.8H766.9c-4.8 0-8.8-3.9-8.8-8.8V64.9c0-4.8 3.9-8.8 8.8-8.8h183.7c4.8 0 8.8 3.9 8.8 8.8l-.1 129.5z" class="st8"/><path d="M775.7 68.8h165.7v121.7H775.7z" style="fill:#8c8c8c"/><path d="M772.4 129.7c0 2.2-1.8 4-4 4s-4-1.8-4-4 1.8-4 4-4c2.2-.1 4 1.7 4 4z" class="st10"/><path d="M949.1 121.6v16.2" class="st11"/><path d="M782.7 76.5h152.7v7.6H782.7z" class="st17"/><path d="M782.7 90.9h152.7v45.9H782.7zM783.2 141.8h23.3v17.7h-23.3z" class="st18"/><path d="M810 141.8h43.7v4.1H810zM810 148.5h43.7v4.1H810zM810 155.2h43.7v4.1H810z" class="st17"/><path d="M864 141.8h23.2v17.7H864z" class="st18"/><path d="M890.6 141.8h43.6v4.1h-43.6zM890.6 148.5h43.6v4.1h-43.6zM890.6 155.2h43.6v4.1h-43.6z" class="st17"/><path d="M783.2 167.6h23.3v17.7h-23.3z" class="st18"/><path d="M810 167.6h43.7v4.1H810zM810 174.2h43.7v4.1H810zM810 181h43.7v4.1H810z" class="st17"/><path d="M864 167.6h23.2v17.7H864z" class="st18"/><path d="M890.6 167.6h43.6v4.1h-43.6zM890.6 174.2h43.6v4.1h-43.6zM890.6 181h43.6v4.1h-43.6z" class="st17"/><path d="M896.6 29.1c2.2-.2 7.2 2.2 7.2 2.2-1.1-2.7-8.7-9.2-8.7-9.2v.1c-4.1-2.5-8.7-4.6-13.6-6.2l1.9-2.2-8.6.3c-8.8-2.2-18.2-3.2-27.3-3.7l1.8-2.5c-16-.7-31.3 6.2-36 9.8l.8-3.7-4.7 2.9c0-2.9 3.8-8.5 3.8-8.5-5.4 1.3-9.4 8.5-9.4 8.5l-1.1 4.3.4-.1-5.4 34h16.1l84.1.1c1-8.2-.2-19.3-1.3-26.1-.1 0 0 0 0 0zM812 19.2c-.1.1-.2.1-.4.1l.4-.1z" class="st0"/><path d="m850.7 94.5-4 4.3-6.9-6-10.5 7.6s-4.7-5.6-6.3-8.7-2.5-12.3-2.5-12.3l-2.5 2c2.9-11 2.8-10.8 4.7-13.9 0-.1 27.1-5.4 28 27z" class="st19"/><path d="M853.5 81.8c.2-3.4-1.5-6.8-1.1-10.2.2-1.7.5-3.6 1.6-4.9 1.2-1.3 2.9-2 4.5-2.8.7-.3 1.4-.7 2.1-1 1.2-1.1 2.6-2 4.2-2.8 8.8-4.3 33.1-6.6 33.1-6.6-35-13.5-84.8-.6-84.8-.6-10 6.9-15.1 27.7-15.1 27.7 7.6-6.5 30.7-20.3 31.4-20-1.4 9.6-14.8 9.4 22.1 36.7.2-5 1.4-10.1 2.2-15.1-.1-.1-.2-.3-.2-.4z" class="st0"/><path d="M814.1 38.5c-6.8 3.7-12.1 10.2-16.5 16.6h13.7s4.7-4 11.7-9.3c0 0-8.8.5-13.8-.2 0 0 18.4-4.8 25.9-8.8 9.2-6.5 15.3-10.9 23.6-14.2 0 0 .4-.4-1-.9 0 0 1.6-.4 3.1-.1 0 0 6.6-2.7 9.6-2.8.1-.1-18.2-1.9-56.3 19.7z" class="st6"/><path d="M809.9 66.5c-5.6-.1-11.2 0-16.8-.2-.9 1.9-1.5 3.8-1.6 5.8 0 3.6.2 7.4-.7 8.4l19.1-14z" class="st19"/><path d="M823 45.8s-23.8 13.4-24.3 26.4c0 3.6.2 7.4-.7 8.4l24.9-19 .1-15.8zM828.3 62.1C824 76.7 824 76.3 824.5 84c.2 3.4.4 4.9 2 6.5s9.2 10.1 9.2 10.1 9.1-6.2 8.3-12.5c-2.5-20.4-15.7-26-15.7-26z" class="st0"/><path d="M817.1 67.4c.3-.2 3.8-4.3 12.8-4.9 6.3-.4 0-4.5 0-4.5l-12.1.7" class="st0"/><path d="M824.9 86.9s-1.3-6-1.1-10.5l-2 1.8c3.1-13.2 2.1-13 4-17 2.9-6 3.4 18.8 3.4 18.8" class="st0"/><path d="M839 76.6c.5-4.3.8-11.9 2.1-16.4-.7.8-1.3 1.7-1.8 2.6-1.8 4-3 9.6-3.2 15.3-.4 7.6 6.4 15.8 6.4 15.8s.9-1.4 1.4-2.6l-3.5-6.9s-2-2.2-1.4-7.8z" class="st6"/><script id="bw-fido2-page-script"/></svg>