<svg xmlns="http://www.w3.org/2000/svg" width="230" height="401"><g fill="none"><path fill="#BB3434" d="M91.008 383c-29.33 0-53.326 1.588-55.993 4.235-.533-.53-8.532 0-9.065 0-.533 0-1.066.53-1.6 1.06-.533 1.058-.533 2.646.534 3.176 1.066 1.058 5.865.529 7.465-.53l.533-.53-1.6.53c-1.066 1.059-2.666 1.588-3.732 1.588-.533.53-1.6 1.589-1.6 2.647 0 1.06 1.067 2.648 2.666 2.648h.534c1.066-.53 4.799-4.236 5.865-5.295 0 .53-1.066 3.706-1.6 4.765-.533 1.059-.533 1.588.534 2.647.533.53 1.066 1.059 1.6 1.059l.533-.53c1.067-.529 1.067-1.058 1.067-2.646a7.295 7.295 0 0 0 0-4.765l-.534-3.706h.534c6.399 2.118 27.729 3.706 53.859 3.706 30.929 0 55.992-2.647 55.992-5.294-.533-2.647-25.063-4.765-55.992-4.765"/><path fill="#AD0B02" d="M33.048 364.396c-.533-1.067-7.461-10.141-9.06-9.074-1.599 1.068-4.263 1.068-5.862 1.068-2.665.534-4.796.534-7.461-.534-2.665-.534-5.33-1.068-7.994.534-4.264 2.669-3.198 9.607 1.599 10.675 2.664.534 5.862-.534 8.527-1.068 3.197-.533 5.862-1.6 8.527-3.202-3.731 3.202-7.462 5.871-11.725 8.006-3.198 2.135-4.263 6.94-1.066 9.608 3.198 3.202 7.461 1.067 10.126-1.601 3.197-3.203 6.395-7.473 9.06-11.21-.533 2.136-.533 4.27-1.066 6.406l-2.665 7.472c-1.066 4.27 2.665 8.007 6.395 7.473 4.797-1.068 5.33-5.871 5.33-9.608.533-5.337-.533-10.141-2.665-14.945zm93.263-350.679c-3.197-3.202-7.994-1.601-9.06 2.135-1.066 2.135-.533 4.804-.533 7.473 0 2.669-.533 5.871-1.065 8.54-1.066-5.338-2.665-9.074-4.797-13.344-1.599-3.203-4.263-6.939-8.527-4.804-3.73 1.601-4.796 5.871-2.664 9.074l4.796 5.338c1.599 1.6 2.665 4.27 4.263 6.405-3.197-3.737-7.994-7.473-12.257-8.54-4.263-1.068-10.126 1.067-8.527 6.405 1.599 5.871 8.527 4.803 12.79 6.405l2.665 1.067c1.066.534 17.054-3.202 19.186-6.405 1.598-2.669 3.197-4.804 3.73-5.871 1.066-4.27 3.198-10.142 0-13.878-4.263-3.736 4.264 4.27 0 0z"/><path fill="#B60C02" d="M163.364 56.057C150.016 36.81 142.008 32 125.457 32c-17.62 0-32.568 10.692-38.975 26.195 0 0-12.814 25.66 5.873 75.912 18.152 49.717-3.204 85-11.212 98.9-6.94 11.226-32.034 36.886-45.916 50.785C19.21 299.83 9.6 326.56 16.007 339.925v.534C20.812 358.635 37.363 372 56.583 372c10.144 0 19.755-3.742 27.23-10.157 25.093-19.246 63-61.478 79.017-90.88 26.161-48.114 44.848-139.529.534-214.906z"/><path fill="#C61F1A" d="M99.924 50.786C86.01 58.845 84.94 77.648 89.221 91.616c5.887 15.58 23.012 12.357 26.758-1.611l3.746-23.639c2.14-9.67-8.563-22.027-19.8-15.58zm1.07 55.336C88.687 108.808 88.687 126 99.925 126c5.887 0 11.238-2.686 11.238-9.133-.535-5.373-4.816-10.745-10.167-10.745z"/><path fill="#DD3B3B" d="M113.582 82.437c-2.676 10.745-16.059 13.969-20.877 1.612-3.211-10.208-2.676-25.251 8.565-31.698 9.1-4.836 17.13 4.298 15.524 11.82l-3.212 18.266z"/><path fill="#CB2623" d="M108.954 116.538c.537 4.308-3.755 6.462-8.047 6.462-8.047 0-8.047-12.385 1.073-14 3.756 0 6.974 3.23 6.974 7.538z"/><path fill="#AA0C01" d="M135.134 36c-1.065 0-5.327.534-6.392 1.067v1.6h6.392V36zm44.745 62.958v-.533h-2.13v2.134h2.13v-1.6zm5.86 29.346v-2.135c-.533 0-1.066-.533-1.598.534 0 .533-.533 1.067.532 1.6h1.066zm0 46.418h2.13v-2.134h-2.13v2.134zm0 18.14c-.533-1.066-1.066-.533-2.131-.533v1.6h2.13v-1.066zM58.96 370v-1.6h-2.13v1.6h2.13zm59.127-334v.534c.533.533 1.598.533 2.131 0-.533 0-1.065-.534-2.13-.534zm15.448 6.936c.533-.533 1.065 0 1.598-.533v-1.601c-9.588 0-3.729 3.201-9.056 2.134-1.598-2.668.533-2.134-3.196-2.134-1.065 1.067-3.196 2.668-1.598 4.268l1.598.534v4.268c1.066 0 1.066.534 1.598-.533.533-.534-.532-1.067.533-1.601 1.598-.534 2.663.534 2.13 2.134h1.599v4.269c1.065.533 1.598.533 2.13-.534-.532-1.6.533-2.668 2.131-2.134v-2.134l-.532-.534h-.533l3.196-1.6h5.86V45.07h-8.523c.532-.533 0-1.067 1.065-2.134zm31.428 110.444h4.261v-3.201c-1.598-.534-4.794-1.067-8.522-2.668v4.269h4.261v1.6zm-.533 46.952v-4.268h-4.261c0-1.067-.533-1.067.533-1.6.532-.534 1.065.533 1.598-.534v-1.6h-4.262v8.002c1.598-.533 2.664.534 2.13 2.134 3.197-1.067 4.262-.533 4.262 2.668h5.86v-2.668c-3.729-.533.533-2.134-5.86-2.134zm-22.905 76.83h-6.392c.533-1.6-.533-2.667-2.663-2.667-.533-1.6.532-2.668 2.13-2.134-.532-.534.533-1.067-.532-1.6h-4.262v3.734c-.532.534-1.598-.533-1.598.534v2.134h4.262c.532 1.6-.533 3.201.532 4.268l1.598.534v4.268h2.131c3.729-3.735 4.794-4.802 4.794-9.07zm-23.438 22.41c-7.457 7.47-6.392-2.134-6.392 7.47 6.925 0 12.784-6.403 11.719-10.138 1.065.534 2.13.534 3.196-.533v-2.135h-4.261c-.533.534-.533.534-.533 1.068-1.065-.534-1.598-1.068-3.196-1.068h-.533c-1.598 1.068-1.598 2.668 0 5.336zm21.307-231.026c.533.534 1.598-.533 1.598 0l.533 2.135h4.262v-4.269h6.392c1.065 1.067 1.598 3.201 2.663 4.269h4.262c.532-1.601-.533-2.668-2.664-2.135v-4.268c-1.598-.534-2.663.534-2.663 2.134h-2.13c0-.533.532-1.067-.534-2.134h-5.86l-.532-1.6c-.532-.534-1.598-.534-2.13.533v3.735h-4.262c1.065-.534 1.065 1.6 1.065 1.6zm28.232 74.697h1.066c0-.534-.533-1.067-.533-1.6.533 0-.533 1.6-.533 1.6zm-.532.533-1.066 1.067c.533 0 1.066-.533 1.066-1.067zM111.696 39.201v1.6c.533 0 11.186 1.602 6.392-4.267h-1.598c-.532 2.667-2.13 3.734-4.794 2.667zm0 261.438c3.729-.534 5.327-2.668 4.262-5.869-.533-.534-1.066-1.067-2.664-.534.533 1.601-.533 2.668-2.663 2.135 1.065 0 1.065 4.268 1.065 4.268zm-34.091 48.553v-5.87h-1.598v6.403l1.598-.533zm46.343-65.627h-1.598v4.269h4.261c-.533-.534.533-1.067-.533-1.6l-1.598-.534c-.532-1.067.533-1.601-.532-2.135zm4.794 6.403c.533.534-.533 1.067.533 1.6h4.26V287.3h-2.13c-.532 2.135-1.065 2.668-2.663 2.668zm-29.83 35.748v-5.87h-1.598v6.403c.532-.533 1.065 0 1.598-.533zm12.784-278.512h6.392v-1.6c-3.196-1.6-5.327-1.067-6.392 1.6zm61.258 87.502h-.532l-1.066 1.6h1.598c.533-.533.533-1.066 0-1.6zM122.35 291.57h4.261c.533-.534.533-1.067 0-1.6h-4.261v1.6zm48.474-136.055c2.663 2.668 3.728-2.667 2.13-4.268h-2.13v4.268zM162.3 208.87h-4.262v2.134h4.262v-2.134zm0-4.268h-4.262v1.6h4.262c.532 0 .532-1.067 0-1.6zm-7.99 46.952v4.268h1.597v-4.268h-1.598zm-11.187 6.936h-4.261v1.6h4.261c.533-1.067 1.066-1.6 0-1.6zm6.925-175.537h4.261v-1.6c-1.065-1.068-2.663-1.068-4.261 0 0 .533-.533 1.6 0 1.6zm-49.007 230.492c-.532-.533-1.065-.533-1.598 0v4.268h1.598v-4.268zm44.746-49.086 1.598-.534v-4.268c-.533.533-1.066-.534-1.598.533v4.269zm-51.138 57.09c-.532-.534-1.065-.534-1.598 0v4.268h1.598v-4.269zm46.343-50.688c-.532 0-1.065-.533-1.598.534v3.735h1.598v-4.269zm27.7-54.955h-4.262v1.6h4.262v-1.6zm-6.392 1.6v-4.268h-1.598c-1.066 2.135 0 3.735 1.598 4.269zm14.915-119.514-.533 1.067h.533v-1.067zM73.343 345.457h-4.261v1.6h4.261c.533-.533.533-1.067 0-1.6zm80.967-117.38v4.268h1.598v-4.268h-1.598zm4.262-2.135c-.533-.533-1.065-.533-1.598-.533l.533-.534c.532 1.067 2.663.534 3.196.534v-1.6c1.598-.534 3.196-1.601 4.261-2.668 0-.534.533-1.068-.533-1.601h-5.86v-3.735c-.532-.533-1.597.534-1.597-.533v-2.135c-.533 0-1.066-.533-1.598.534v4.268c.532.534 1.065-.533 1.598.534v4.268c-1.598.534-3.196 1.6-4.262 2.668v1.6h4.262v2.135h2.13c-.532-1.067-.532-3.202-.532-3.202zm-6.925 2.135h-2.13l.532 1.6c.533 0 1.065.534 1.598-.533 0 0 .533-.534 0-1.067zm9.056 4.268h1.598v-1.6c-.533-.534-1.066-.534-1.598.533v1.067zm-2.664 2.134c0-.533.533-1.067-.532-1.6h-1.599v1.6c1.066 0 1.599.534 2.131 0zm-8.523 0h-2.13l.532 1.6c.533 0 1.066.534 1.598-.533 0 0 .533-.533 0-1.067zm-4.261 19.208c-.533-.534-1.065-.534-1.598.533v1.601h1.598v-2.134zm2.13 2.134h-1.597v1.6c.532.534 1.065.534 1.598-.533v-1.067zm-10.12 5.87h1.598v-1.602h-2.131c.533.534.533 1.068.533 1.601zm5.86.533h-1.599v1.6h1.598c.533-.533 1.066-1.067 0-1.6zm-7.991 2.134v1.6h2.13c.533-.533.533-1.067-.532-1.6h-1.598zm5.86 2.134v-1.6h-1.599c-.532.533-.532 1.066.533 1.6h1.065zm-7.99 2.134h1.597v-2.134h-1.598c0 1.067-.532 1.6 0 2.134zm8.522 0v1.6h1.598c.533-.533.533-1.066-.532-1.6h-1.066zm-31.96-225.69c.532 0 1.065.534 1.597-.533v-1.601h-2.13c.532 1.067 0 1.6.532 2.134zm19.176 236.361v-2.134h-1.598c-.533.533-.533 1.067.532 1.6h1.066v.534zm1.598 2.134c-.533 0-1.065-.533-1.598.534v1.6c.533-.533 1.598.534 2.13-.533 0-.534 0-1.067-.532-1.6zm9.055-232.092h-1.598v1.6h2.131c-.533.534-.533-1.6-.533-1.6zm3.73 0c-.533.533-1.066-.534-1.599.533.533.534-.533 1.067.533 1.6h1.598c-.533-.533.533-1.6-.533-2.133zm-14.383 236.36v1.601h1.598v-1.6c-.533-.534-1.065-.534-1.598 0zm4.261 1.601h2.131v-2.134h-2.13v2.134zm2.131-233.693h1.598v-2.134h-2.13c.532 1.067 0 1.6.532 2.134zm-17.046 238.495c-.532 0-1.065-.533-1.598.534v1.6l.533.534c.533.534 1.065.534 1.598-.534-.533-.533-.533-1.6-.533-2.134zm2.131 0v2.134l.533.534c.532.534 1.065.534 1.598-.534v-2.134h-2.131zm10.654-235.827v1.6h1.598v-2.134c-.533.534-1.066 0-1.598.534zm6.392 1.6h1.598v-2.134c-.533.534-1.598-.533-1.598.534v1.6zm0 8.537h2.13v-2.134h-2.13v2.134zm12.251 4.269c-.532 0-1.065-.534-1.598.533v1.6l.533.534c.533.534 1.065.534 1.598-.533 0-.534 0-1.6-.533-2.134zm-39.95 229.958c0 .534-.533 1.067.532 1.6h1.598l.533-.533c.532-.533.532-1.067-.533-1.6l-2.13.533zm38.352-214.486v1.601h1.598v-1.6c-.532-.534-1.065-1.068-1.598 0zm-38.353 220.355v-2.134l-1.598.533c0 .534-.532 1.067.533 1.601 0 0 .533.534 1.065 0zm6.393 0v2.134h2.13l.533-.533c0-1.601-.533-2.135-2.663-1.601zm-10.654 4.268h1.598c-.533-1.067.533-1.6-.533-1.6-.532 0-1.065-.534-1.598.533l.533 1.067zm6.392-2.134c-.533.534-1.598 0-2.13.534 0 .533-.533 1.067.532 1.6h1.598c0-.533.533-1.6 0-2.134zm6.392 2.134c-.532 0-1.065-.533-1.598.534 0 .533-.532 1.067.533 1.6h1.598c0-.533 0-1.067-.533-2.134zm-8.523 4.269h1.598v-1.6c-.532-.534-1.065-.534-1.598.533v1.067zm-20.774 10.67c.533 0 1.065.534 1.598-.533v-1.6c-.533.533-1.598-.534-2.13.533 0 .534 0 1.067.532 1.6zm10.12 4.269c0-.534.533-1.067-.532-1.6-.533 0-1.065-.534-1.598.533v1.6l.533.534c.532-.533 1.065-.533 1.598-1.067zm74.576-191.01c.533 0 1.065.534 1.598-.533v-1.6h-2.13l.532 2.133zm-2.13 3.735h1.597c.533-.533.533-1.067-.532-1.6h-1.598l.532 1.6zm-2.132 2.134c.533 0 1.066.534 1.599-.533v-1.6h-2.131l.532 2.133zm-.532 12.806.532.533c1.599.534 2.131-.533 1.599-2.668h-2.131v2.135zM66.95 344.923c-.533 0-1.065-.533-1.598.534v1.6h2.13l-.532-2.134zm-2.13 4.269v-1.6h-1.599c-.532.533-.532 1.066 0 1.6h1.598zm2.663 0c.532 0 1.065.533 1.598-.534v-1.6H66.95c0 1.067 0 1.6.533 2.134zM27 353.994v1.6h1.598v-1.6c-.533-.534-1.065-.534-1.598 0zm2.13 3.734c.533 0 1.066 0 1.599-.533v-1.6H29.13v2.133zm4.262-1.6v1.6h1.598v-1.6c0-.534-1.065-.534-1.598 0zm135.833-175.003h1.599c.532-.534.532-1.067-.533-1.601h-1.598l.532 1.6zm3.73 19.207c-.533 0-1.066-.533-1.599.534v1.6h2.13c0-.533 0-1.6-.532-2.134zm8.522 2.668v2.134l1.598-.533c0-.534.533-1.067-.533-1.601.533 0 0-.534-1.065 0zm-25.036 4.268c0 .534-.533 1.067.533 1.601h1.065v-2.134c-.532 0-1.065 0-1.598.533zm2.13 3.735h-2.13v2.134h2.13v-2.134zm28.233-27.744h-1.065v2.134c1.598 0 .532-1.067 1.065-2.134zM161.235 57.342c-.532 0-.532.533-.532.533.532 0 .532 0 .532-.533zm-6.925-8.537-.532.534h.532c.533-.534 0-.534 0-.534zM77.605 339.588h-3.73v1.6h6.393v4.269c1.598.533 2.663-.534 2.663-2.134h3.73v1.6h1.064l-1.598 1.601v-1.067c-.532 0-1.065-.534-1.598.533 0 .534-.532 1.068.533 1.601h.533c-1.066 1.067-2.13 1.6-3.196 2.668v-.534h-2.131v2.134l-2.663 2.135h-1.598c-.533.533-.533 1.067-.533 1.6l-1.066.534h-1.065v-4.269c.533-.533 1.598.534 1.598-.533v-1.6H70.68c-.533 1.6.532 3.2-.533 4.268-1.598.533-2.663-.534-2.663-2.135-1.598-.533-2.131.534-1.598 1.601-.533.534-1.066.534-1.598-.533v-1.068c-1.598-.533-2.664.534-2.131 2.668h-6.392c.532 3.201 2.663 4.269 6.392 2.134 0 4.802 1.598 1.067 2.663 0 3.729 0 5.327 1.067 6.392 2.135-1.065.533-1.598 1.067-2.663 1.6v-1.6H64.82c-.532.533-.532 1.6 0 2.134h3.196l-2.663 1.067c-2.663-4.269-17.046-6.403-15.98-5.87-1.066.534-3.197 1.601-3.73 2.669-.532 3.2 2.132.533 2.132 5.869 1.065.533 1.598.533 2.13-.534v-3.735h6.392v2.134c1.598.534 2.664-.533 2.664-2.134.532.534 1.065-.533 1.598.534v3.201c-1.066.534-2.664.534-4.262 1.067v-2.668h-4.261c-.533 1.067-.533 1.601.533 2.135.532.533 1.065-.534 1.598.533l-3.196.534c-2.664 0-4.795-.534-7.458-.534-.533-1.6.533-4.268-.533-5.869-.532.534-1.065-.533-1.598.534 0 1.067-.532 2.667-.532 4.268-2.664 0-3.196-1.6-2.131-4.268H34.99v2.667c2.664 2.668 7.99 9.07 12.785 5.87-1.066-1.601-2.664-2.668-3.73-3.735 3.197 1.067 6.393 2.134 10.122 2.667v1.6h1.598v-1.6h1.065c1.598 0 3.729-.533 5.86-.533-.533 1.067-.533 1.6-.533 2.134h4.261v-2.668c5.327-1.067 10.121-3.735 13.85-7.47l.533-.533c1.598-1.067 3.728-2.668 5.86-4.268h3.728v-4.269c5.86-5.335 12.252-11.204 18.644-18.14h.532l.533-.534c-.533 1.067-.533 2.668-.533 2.668 1.598 0 2.131-.534 2.131-2.134-1.065-1.067-1.598-1.067-1.598-.534l6.392-6.402c1.066-.534 1.598-1.068 1.598-1.601v-.534l1.066-1.067h1.065v-1.067l1.065-1.067c.533 0 .533 0 1.066-.533v-1.068l4.261-5.335v1.6h1.598v-4.268c4.262-4.802 7.99-10.137 12.252-14.939l2.663-.534v-1.6h-1.065l1.065-1.6v1.6h2.13v-2.134h-1.597c1.065-1.067 2.13-2.668 3.196-4.269 1.065-.533 2.663-1.6 3.196-2.668v-1.6c1.598-2.668 3.196-4.269 4.261-6.403l.533.534c.533 0 1.065.533 1.598-.534v-1.6h-1.065c1.065-1.601 2.663-3.735 3.196-5.87l.533-1.066c.532 0 1.065 0 1.065-.534s.533-1.067-.533-1.6l5.327-10.672c.533.534 1.065.534 1.065-.533v-1.6h-.532l1.065-2.135c.533 0 1.065 0 1.598-.533v-3.735l1.598-4.802.533-.534.533-1.067c.532-1.067.532-1.6 1.065-3.201h1.065c-.532-1.6.533-2.668 2.131-2.134.533-1.067.533-1.601 0-1.601h-1.598c1.598-4.802 3.196-10.137 4.261-14.94.533 0 1.066.534 1.598-.533-.532-1.6.533-2.668 2.131-2.668v-1.6h-1.598l.533-3.201v.533c.532.534 1.065.534 1.598 0v-4.268h-1.066c.533-3.202 1.598-7.47 1.598-10.671h1.599v-4.269h-1.066l.533-4.268.533-.533v-1.601h2.13v-2.134h-1.598c.533-4.802 1.066-10.138 1.066-14.94h2.663v-2.134h-2.663l.532-6.402.533.533c.533 1.067-.533 2.668.533 4.269h2.13v-6.403h-2.663v-4.268l.533-.534v-.533l-.533-.534v-.534c.533.534 2.663.534 3.196.534-.533-1.067-.533-1.6-.533-2.668h-2.13c-.533.534-.533.534-.533 1.067-.533-6.402-.533-13.338-1.598-19.74.533-.534.533-1.601-.533-2.669h-.532c-2.664-18.674-7.458-36.814-15.448-53.888l.532-1.067c-.532 0-.532-.533-1.065 0l-3.196-6.402.533-.534V61.61c-1.066 0-1.598.534-2.664 1.067l-2.13-4.268-.533-.534-.533-1.067c.533 0 .533 0 1.066-.533v-1.6h-2.664v3.734l-.532-.534h.532v-1.6c-.532-.534-1.065-.534-1.598 0-3.729-4.802-6.392-8.003-9.055-10.138V45.07h-1.066l-1.065-.533v-1.6c-1.598.533-2.663-.534-2.663-2.669h-1.599v1.067l-5.326-1.6c1.598 1.067 3.196 2.134 5.326 3.735v1.067h1.066c3.196 3.201 6.392 7.47 10.12 12.805h-5.326v-3.735c-1.065-.534-1.598-.534-1.598 0 .533 1.6-.533 2.668-2.663 2.668v1.6c3.196.534 2.663 3.202 4.26 4.269h4.262c.533-.534-.532-1.6.533-1.6h1.598v-.534l.533.533h-.533v2.134c.533.534 1.065.534 1.065.534l4.795 9.604v1.067c-4.795-2.668-8.523-2.668-10.654.533-.533 3.735-.533 4.269 3.729 4.269 4.261-1.067 7.457.533 9.055-.534l.533 1.067c-1.065 0-2.13.534-3.196 2.134-1.598-7.47-3.196 2.668-3.196 9.07h-.533v2.135h-2.13v-6.403c-1.599-.533-2.664.534-2.664 2.668h-1.598v6.403l5.86 2.667 2.663-3.734c1.598-2.668 3.196-4.802 4.261-7.47l1.598-3.201.533-.534v-.533c4.794 12.271 8.523 25.076 10.654 37.881l-.533.534v1.6h.533l.532 4.269h-.532c0 1.6-.533 3.201-1.066 3.735v.533h2.131l.533 2.134h-2.131v4.269h2.13v-3.735l1.066 13.872-1.598-1.6c-1.598-.534-2.13.533-1.598 2.134h-9.056l3.73 2.667h3.728v1.601c1.598 1.6 4.794.534 5.86-1.6 1.597 3.734 1.597 8.003 1.597 12.271h-1.065c.533 1.067.533 2.134 1.065 2.668l-.532 3.201h-1.598c-.533.534-.533.534-.533 1.067l-.533-.533c1.066.533 1.066-2.668 1.066-3.202h-2.131c0-7.47-4.794-8.536-9.056-6.402-.532-.534-1.065.533-1.598-.534v-3.735c-1.598.534-2.663-.533-2.663-2.667h-1.598v4.268l1.598.534 2.663 3.734 6.393-.533.532 5.869h-2.663v-1.6h-2.664v3.734h-4.261v-3.735h-1.598v8.003h1.598c0 .534.533 1.067-.533 1.601-.532.534-1.598-.534-1.598.534v8.003c1.598-.534 2.664.533 2.131 2.134h8.523c.533-1.6-.533-2.668-2.13-2.668v-1.6c-.534 0-1.599.533-2.664.533l.532-.533c0-.534.533-1.067-.532-1.601-.533 0-1.066-.534-1.598.534v1.6l.532.534.533.533c-1.065 0-1.598 0-2.663-.533v-3.735c1.598-.534 2.663.533 4.261-.534-.533-2.667-2.13-1.067-2.13-4.268h2.13c0 4.268.533 2.668.533 0h7.99v1.067h-4.261v1.6c1.065.534 2.663-.533 4.261.534v4.269c-1.065 0-1.598-.534-2.13 0v4.268c2.13-1.067 2.663-1.067 4.26-1.6l-1.065 10.67h-1.065v-6.402c-1.065.533-1.598-.534-1.598.533l-.533 3.202h-1.598c.533-.534.533-1.068-.532-2.135h-3.73l-.532-1.6h-6.392c.533.533-.533 1.6.533 2.134h3.728c.533 1.6-.532 2.668.533 4.268h1.598v4.269c1.065.533 1.598.533 1.598 0 .533-.534-.533-1.601.533-1.601h1.598c0 1.067.533 1.6.533 2.134h4.261c-.533 1.6-.533 2.668-1.065 4.269h-1.066v3.734c-1.598-.533-2.663.534-2.663 2.668-.533 0-1.066.534-1.598-.533 0-1.068.532-1.601 0-2.135h-4.262c.533.534-.532 1.067.533 1.601l1.598.534c.533 1.067-.533 2.667.533 4.268h3.729c.532 1.067-.533 2.668.532 4.268l-1.065 4.269h-3.196c-.533 3.2-3.196 2.667-4.262 4.268.533.534-.532 1.067.533 1.6h4.261c.533-.533-.532-1.066.533-1.6.533 0 1.598-.534 2.13-1.067l-2.663 8.003v-.533h-4.261c0 .533-.533 1.067.533 1.6h3.196c-.533 1.067-1.066 2.668-1.598 4.269-.533-.534.532-1.067-.533-1.601h-7.99v-1.6c-.533 0-1.066-.534-1.598.533v3.735c1.598-.534 2.663.533 2.663 2.134h1.598c-.532 1.6-1.598 3.201-2.663 4.268h-1.598c-1.066-1.067-1.598-3.201-2.664-4.268h-1.598c0-.534.533-1.067-.532-1.6-.533 0-1.066-.534-1.598.533v1.6h-2.131v4.269c-.533 0-1.598-.534-2.13.533v5.87h4.26l.533-1.601c.533-.534 1.598-.534 2.131.533v3.735h1.598v-6.402c1.065 0 3.729 1.6 4.262 2.667v1.6c1.598 0 2.663-.533 3.728-1.066l-1.598 3.201h-.532l-1.066-1.067-1.598 3.735h-6.925c2.664 5.335 1.598 8.003-2.13 8.537-.533 1.6.532 2.667 2.13 2.134v1.6c-1.065-.533-2.663-.533-4.261 0-.533 1.067-.533 1.601 0 1.601l1.598.534c0 .533.533 1.067 0 1.067h-3.729v4.268h1.066c-.533.534-1.066 1.067-1.598 2.134h-1.599c-1.065 1.067-.532 1.6.533 2.668l-1.065 1.6c-1.066-.533-2.664-.533-3.196.534v1.6c.532 0 1.065 0 1.598.534l-5.86 8.004c0-.534 0-1.068-.532-1.068-.533 0-1.066-.533-1.598.534v1.6l.532.534c.533.534.533.534 1.066.534l-3.196 4.268v-.533c-2.664-.534-3.197.533-2.664 3.2l-.533.534c-.532-1.067-1.598-1.067-3.728 1.067-1.066 1.068.532 2.135 0 3.202-4.262 1.6-4.262 3.201-3.196 4.268l-.533 1.067-.533.534v-.534l-2.663 1.6h-4.794c0 .534-.533 1.068.532 2.135h2.664l-2.664 3.201c0-.533 0-.533-.532-1.067h-1.598v1.6h1.065l-1.065 1.068v-1.067h-2.131v-6.403h-4.261v2.668c-.533-.534-1.066-.534-2.131-.534v8.004l2.13.533v3.201l-1.065 1.068c-1.065 0-3.729-.534-4.794.533-.533-.533-2.13-.533-3.196-.533 0-.534.533-1.068-.533-1.601H86.66c.533 1.6-.533 2.668.533 4.268 1.598.534 2.663-.533 1.598-2.134h4.261c0 1.067-.532 2.668.533 4.268h1.598c.533-.533 1.065-1.067 1.065-1.6.533.533.533.533.533 1.067v.533c-3.196 3.202-7.457 6.937-10.12 10.138v-3.201h2.13v-2.135c-.533-1.067-.533-1.6.533-2.134 0-.533.532-1.067-.533-1.6-1.066-.534-2.664.533-4.262-.534v-6.403c-1.065.534-3.196 1.601-4.261 2.668l1.598 1.6v2.135l3.196 3.201-1.065 1.067-1.598-1.6h-2.131l2.13 2.134-1.597 1.6h-4.262l1.066-2.667zm100.143-158.463v-4.269h.533c-.533 1.6-.533 2.668-.533 4.269zm-23.438 78.43h1.598l-2.663 5.336c-.533-.533-.533-1.067-1.065-1.067l2.13-4.268zm31.43-101.905c.532.533 1.065.533 1.598-.534v-1.6h-1.598v2.134zM128.742 41.335v-2.134c-1.598 0-2.664-.533-4.262.534v1.6l.533.534c1.065 0 2.663 0 3.729-.534zm-6.925-4.268h-1.598l-.533.534c-.532 1.067-.532 2.667.533 3.734.533.534 1.598.534 2.13 0-.532-1.6.533-3.2-.532-4.268z"/><path fill="#AA0C01" d="m167.111 148.353-8.148-5.294.543-1.059-8.148-5.294-1.086 1.059-8.149-5.294.544-1.06-8.148-5.293v.53l-.544 1.058L128 124c7.605 6.882 24.444 18.53 28.79 21.176 1.63 1.06 3.26 1.589 4.889 2.648 3.802 1.588 6.519 2.647 8.691 2.647 1.087.529 1.63.529 1.63.529l-1.63-1.059-3.802-2.647-.543-.53c2.173.53 1.086 1.589 1.086 1.589z"/><path fill="#2F1815" d="M222.15 1.338c-6.91-3.187-14.884-.531-18.073 6.374l-2.127 4.25c-1.594 2.655-3.189 6.904-5.847 11.685L188.13 39.58c-1.595 3.187-3.19 5.843-4.784 9.03-1.595 3.187-3.19 6.374-4.784 9.03-4.253 7.967-8.505 15.935-12.226 23.902-.532 1.062-8.505 15.403-11.163 15.935-2.658 1.062-15.947 3.187-18.605 7.967l-.531 1.062-8.505 14.873-.532.53 7.973 5.313.532-1.063 3.19-5.311c1.594-2.656 4.252-3.187 6.378-2.125 2.126 1.062 2.658 4.25 1.595 6.905l-3.19 5.312-.531 1.593 7.973 5.312 1.063-1.594 3.19-5.311c1.595-2.656 4.252-3.187 6.379-2.125 2.126 1.062 2.657 4.25 1.594 6.905l-3.19 5.312-1.062 2.655 7.973 5.312 1.595-2.656 8.505-14.872.531-.531v-.532c2.658-4.78-2.657-16.997-2.657-20.184-.532-2.124 4.784-12.216 7.442-15.403 4.784-7.436 10.1-15.935 15.415-24.965l5.847-9.03 5.847-8.498c3.721-5.843 7.442-10.623 10.1-15.403l7.442-10.624 2.658-3.718c-1.595-1.593-1.064-2.124-.532-3.187 2.658-6.373-.532-14.872-6.91-18.059z"/></g><script/></svg>