<svg xmlns="http://www.w3.org/2000/svg" xml:space="preserve" viewBox="0 0 800 800">
  <path fill="#111322" d="M755.2 0H44.8C20.1 0 0 20.1 0 44.8v710.4C0 779.9 20.1 800 44.8 800h710.4c24.7 0 44.8-20.1 44.8-44.8V44.8C800 20.1 779.9 0 755.2 0zM515.4 775H286c15.7-74.1 14.2-149.1 6.2-223.4 27-3.7 54-7.6 80.7-11.8 48-7.5 96.6-14.9 145.3-19.3 11 85 15.8 170.9-2.8 254.5zM369 515.1c-26.4 4.1-53 8.2-79.7 11.8-4.2-33.4-9.2-66.8-14.4-99.7-6.5-41.6-13-83.6-17.5-125.8 38.7-4.4 77.2-10.4 115.3-16.3 36.9-5.7 74-11.4 111.4-15.8 4.2 54.4 12.5 108.4 20.8 161.8 3.3 21.4 6.6 43 9.6 64.7-48.8 4.4-97.4 11.8-145.5 19.3zM25 296.3c40.2 8.5 80.6 12.1 121.1 12.1 28.9 0 57.7-2 86.5-4.8 4.6 42.8 11.1 85.3 17.7 127.4 5.1 32.7 10.1 65.8 14.2 99-80.2 9.7-160.9 13-239.5-4.6V296.3zM279.8 25h228.4c-24.1 73-29.3 146.4-25.6 219.3-38.1 4.4-76 10.3-113.6 16.1-37.6 5.9-75.7 11.6-113.9 15.9-7.1-84-4.3-168.4 24.7-251.3zm249.9 402.2c-8.2-53-16.5-106.7-20.6-160.6 88.8-8.7 178.2-7.4 265.9 23.3v228.4c-78.4-25.9-157.2-29.9-235.3-24.6-3.2-22.3-6.5-44.5-10-66.5zM775 44.8v218.7c-89.2-29.5-178.8-30.6-267.4-21.9-3.6-72.5 1.9-145.1 27-216.6h220.6c10.9 0 19.8 8.9 19.8 19.8zM44.8 25h208.6c-28 84.6-30.4 169.7-23.2 254-68.8 6.5-137.8 6.7-205.3-8.3V44.8C25 33.9 33.9 25 44.8 25zM25 755.2V551c40.2 8.5 80.6 12.2 121.1 12.2s81-3.5 121.3-8.3c7.9 73.8 9.3 147.8-6.8 220.1H44.8c-10.9 0-19.8-8.9-19.8-19.8zM755.2 775H540.8c18-85.2 13.3-171.4 2.3-256.5 77.6-5.1 155.4-.7 231.9 26.1v210.5c0 11-8.9 19.9-19.8 19.9z"/>
  <path d="M220.8 109.4c0 14.6-4.4 26.8-13.3 36.7-8.9 9.9-20.9 17.4-36.1 22.5l42 76.8h-52.3l-34.2-66.7h-26.3l-15.4 66.7h-47L80.1 63.6h71c22.2 0 39.4 3.8 51.5 11.3 12.2 7.6 18.2 19.1 18.2 34.5zm-50.5 7.9c0-7.3-2.3-12.5-7-15.5s-11.6-4.6-20.7-4.6h-23.2L108.1 146h23.1c12.4 0 22.1-2.5 28.9-7.6s10.2-12.1 10.2-21.1z"/>
  <path fill="none" d="M304.5 336.3h227.8v215.5H304.5zm253.6 220.4H785V815H558.1z"/>
  <path d="M485.6 486.3h-47.3l-4.2-37.1h-66.6l-21.3 37.1h-49.1l109-181.8h54.2l25.3 181.8zm-54.9-69.7-7.4-64.9-37.3 64.9h44.7zm221.7 329.7c-25.8 0-46-6.1-60.6-18.3-14.6-12.2-21.9-29.5-21.9-52 0-35 11.3-63.5 33.8-85.6 22.5-22.1 51.1-33.1 85.8-33.1 13.1 0 25.2 1.1 36.4 3.4 11.2 2.2 22.8 6.5 34.9 12.8l-10.4 42.6h-5.2c-9.8-9.3-19-15.7-27.7-19.3-8.7-3.6-18.3-5.4-28.8-5.4-10.7 0-20.3 2.2-28.9 6.5-8.6 4.3-16 10.2-22.1 17.6-5.8 7-10.3 15.3-13.5 24.9-3.3 9.6-4.9 19.6-4.9 30.1 0 14.6 4 25.3 12 32.1 8 6.9 21 10.3 39 10.3 1.8 0 3.7 0 5.9-.1 2.1-.1 4.1-.2 5.9-.4l8.2-35.5H654l7.9-34.3h83.9L725 732.3c-10.8 3.7-22.4 7-34.6 9.9-12.3 2.7-24.9 4.1-38 4.1z"/>
</svg>
