<svg xmlns="http://www.w3.org/2000/svg" xml:space="preserve" style="enable-background:new 0 0 339 339" viewBox="0 0 339 339"><switch><g><path d="M338.1 170c.1 92.9-75.4 167.9-169.2 168.1-92.2.1-167.9-75.7-168-168C.9 76.4 76.2 1 169.7.9 262.8.9 337.9 76.3 338.1 170zM96.3 231.8c1.8 1.4 3.2 2.7 4.8 3.9 23.2 17.1 49.5 23.6 77.9 23.2 16.4-.3 31.8-3.9 45.9-13.1 25-16.3 34.1-66.1-6.9-82.1-11.1-4.3-22.6-7.9-33.9-11.6-10.1-3.3-20.5-5.7-30.3-9.7-9.2-3.8-11.6-11.8-8.1-21.1 2.1-5.5 6.6-8.2 11.8-9.9 13.6-4.2 26.8-2 39.4 3.4 8.5 3.6 16.4 8.6 24.9 13.1 5.7-8.6 11.6-17.5 17.4-26.4-.8-.8-1.1-1.2-1.5-1.5-27.4-22.2-58.6-27.7-92.1-19.1-22.1 5.7-37.5 19.7-42.4 43-4.7 22.6 3.4 38.5 24.4 47.7 7.3 3.2 14.9 5.6 22.5 8.1 14.3 4.8 28.8 9.1 43.1 14.1 5.6 1.9 8.9 6.2 9.3 12.4.4 6.5-1.9 11.8-7.5 15.3-2.2 1.4-4.7 2.6-7.2 3.2-14.4 3.7-28.6 1.9-42-3.7-11.3-4.7-22-10.8-33.4-16.5-5 8.6-10.5 17.8-16.1 27.3z"/></g></switch></svg>