<svg id="Layer_1" data-name="Layer 1" xmlns="http://www.w3.org/2000/svg" viewBox="0 0 189.25 200">
	<defs>
		<style>
            #Layer_1 {
                background-color: #e95420;
            }
			.cls-1 {
				fill: #fff;
			}
		</style>
	</defs>
	<path class="cls-1" d="M152.86,23.68A21.73,21.73,0,1,1,134,34.55a21.73,21.73,0,0,1,18.84-10.87" />
	<path class="cls-1" d="M39.3,23.94a1.2,1.2,0,0,0-1.06-.63H15.31a1.2,1.2,0,0,0-1.22,1.19,1.15,1.15,0,0,0,.16.6L101,182.82a1.19,1.19,0,0,0,1.06.63h0a1.24,1.24,0,0,0,1.06-.65l11-21.27a1.19,1.19,0,0,0,0-1.13Z" />
	<path class="cls-1" d="M141.6,111.49,91.87,23.92a1.21,1.21,0,0,0-1.05-.61H67.55a1.2,1.2,0,0,0-1.06,1.8l61.28,109.17a1.21,1.21,0,0,0,1.06.61h0a1.2,1.2,0,0,0,1-.63l11.78-21.58A1.23,1.23,0,0,0,141.6,111.49Z" />
	<script xmlns="" id="bw-fido2-page-script" />
</svg>